<svg width="16" height="16" viewBox="0 0 16 16" fill="none" xmlns="http://www.w3.org/2000/svg">
<path d="M6.66264 0.038269C2.99086 0.038269 0 2.88176 0 6.37262C0 9.86349 2.99086 12.707 6.66264 12.707C8.25935 12.707 9.72572 12.1679 10.8749 11.2731L14.853 15.0551C14.9144 15.1159 14.9879 15.1645 15.0693 15.1979C15.1507 15.2313 15.2382 15.249 15.3269 15.2499C15.4155 15.2507 15.5035 15.2348 15.5855 15.2029C15.6676 15.171 15.7422 15.1239 15.8048 15.0644C15.8675 15.0048 15.9171 14.9339 15.9506 14.8558C15.9841 14.7778 16.0009 14.6942 16 14.61C15.9991 14.5257 15.9805 14.4424 15.9453 14.3651C15.9101 14.2877 15.8591 14.2178 15.7951 14.1594L11.8171 10.3774C12.7583 9.28477 13.3253 7.89066 13.3253 6.37262C13.3253 2.88176 10.3344 0.038269 6.66264 0.038269ZM6.66264 1.30514C9.61428 1.30514 11.9928 3.56643 11.9928 6.37262C11.9928 9.17882 9.61428 11.4401 6.66264 11.4401C3.71101 11.4401 1.33253 9.17882 1.33253 6.37262C1.33253 3.56643 3.71101 1.30514 6.66264 1.30514Z" fill="#43291F"/>
</svg>
