<svg width="49" height="36" viewBox="0 0 49 36" fill="none" xmlns="http://www.w3.org/2000/svg">
<path d="M4.43466 19V4.45455H9.8892C11.0066 4.45455 11.9441 4.66288 12.7017 5.07955C13.464 5.49621 14.0393 6.06913 14.4276 6.7983C14.8205 7.52273 15.017 8.34659 15.017 9.26989C15.017 10.2027 14.8205 11.0312 14.4276 11.7557C14.0346 12.4801 13.4545 13.0507 12.6875 13.4673C11.9205 13.8793 10.9759 14.0852 9.85369 14.0852H6.23864V11.919H9.49858C10.152 11.919 10.687 11.8054 11.1037 11.5781C11.5204 11.3509 11.8281 11.0384 12.027 10.6406C12.2306 10.2429 12.3324 9.78598 12.3324 9.26989C12.3324 8.75379 12.2306 8.29924 12.027 7.90625C11.8281 7.51326 11.518 7.20786 11.0966 6.99006C10.6799 6.76752 10.1425 6.65625 9.48438 6.65625H7.0696V19H4.43466ZM21.8654 19.2131C20.7717 19.2131 19.8271 18.9858 19.0316 18.5312C18.2409 18.072 17.6325 17.4233 17.2063 16.5852C16.7802 15.7424 16.5671 14.7505 16.5671 13.6094C16.5671 12.4872 16.7802 11.5024 17.2063 10.6548C17.6372 9.80256 18.2385 9.13968 19.0103 8.66619C19.7821 8.18797 20.6888 7.94886 21.7305 7.94886C22.4028 7.94886 23.0373 8.05777 23.6339 8.27557C24.2352 8.48864 24.7655 8.82008 25.2248 9.26989C25.6888 9.7197 26.0534 10.2926 26.3185 10.9886C26.5837 11.6799 26.7163 12.5038 26.7163 13.4602V14.2486H17.7745V12.5156H24.2518C24.247 12.0232 24.1405 11.5852 23.9322 11.2017C23.7238 10.8134 23.4326 10.508 23.0586 10.2855C22.6893 10.063 22.2584 9.9517 21.766 9.9517C21.2404 9.9517 20.7788 10.0795 20.381 10.3352C19.9833 10.5862 19.6732 10.9176 19.4506 11.3295C19.2328 11.7367 19.1216 12.1842 19.1168 12.6719V14.1847C19.1168 14.8191 19.2328 15.3636 19.4648 15.8182C19.6969 16.268 20.0212 16.6136 20.4379 16.8551C20.8545 17.0919 21.3422 17.2102 21.9009 17.2102C22.275 17.2102 22.6135 17.1581 22.9165 17.054C23.2196 16.9451 23.4824 16.7865 23.7049 16.5781C23.9274 16.3698 24.0955 16.1117 24.2092 15.804L26.6097 16.0739C26.4582 16.7083 26.1694 17.2623 25.7433 17.7358C25.3219 18.2045 24.7821 18.5691 24.1239 18.8295C23.4658 19.0852 22.7129 19.2131 21.8654 19.2131ZM34.3388 8.09091V10.0795H28.0675V8.09091H34.3388ZM29.6158 5.47727H32.1868V15.7188C32.1868 16.0644 32.2389 16.3295 32.343 16.5142C32.4519 16.6941 32.594 16.8172 32.7692 16.8835C32.9444 16.9498 33.1385 16.983 33.3516 16.983C33.5125 16.983 33.6593 16.9711 33.7919 16.9474C33.9292 16.9238 34.0334 16.9025 34.1044 16.8835L34.5376 18.8935C34.4003 18.9408 34.2038 18.9929 33.9482 19.0497C33.6972 19.1065 33.3894 19.1397 33.0249 19.1491C32.3809 19.1681 31.8009 19.071 31.2848 18.858C30.7687 18.6402 30.3591 18.304 30.0561 17.8494C29.7578 17.3949 29.611 16.8267 29.6158 16.1449V5.47727Z" fill="#43291F"/>
<path d="M13.1364 30H9.01136V18.3636H13.1705C14.3409 18.3636 15.3485 18.5966 16.1932 19.0625C17.0379 19.5246 17.6875 20.1894 18.142 21.0568C18.6004 21.9242 18.8295 22.9621 18.8295 24.1705C18.8295 25.3826 18.6004 26.4242 18.142 27.2955C17.6875 28.1667 17.0341 28.8352 16.1818 29.3011C15.3333 29.767 14.3182 30 13.1364 30ZM11.4716 27.892H13.0341C13.7614 27.892 14.3731 27.7633 14.8693 27.5057C15.3693 27.2443 15.7443 26.8409 15.9943 26.2955C16.2481 25.7462 16.375 25.0379 16.375 24.1705C16.375 23.3106 16.2481 22.608 15.9943 22.0625C15.7443 21.517 15.3712 21.1155 14.875 20.858C14.3788 20.6004 13.767 20.4716 13.0398 20.4716H11.4716V27.892ZM25.1897 30.1705C24.3071 30.1705 23.5439 29.983 22.8999 29.608C22.2598 29.2292 21.7655 28.7027 21.417 28.0284C21.0685 27.3504 20.8943 26.5644 20.8943 25.6705C20.8943 24.7689 21.0685 23.9811 21.417 23.3068C21.7655 22.6288 22.2598 22.1023 22.8999 21.7273C23.5439 21.3485 24.3071 21.1591 25.1897 21.1591C26.0723 21.1591 26.8337 21.3485 27.4738 21.7273C28.1177 22.1023 28.614 22.6288 28.9624 23.3068C29.3109 23.9811 29.4852 24.7689 29.4852 25.6705C29.4852 26.5644 29.3109 27.3504 28.9624 28.0284C28.614 28.7027 28.1177 29.2292 27.4738 29.608C26.8337 29.983 26.0723 30.1705 25.1897 30.1705ZM25.2011 28.2955C25.6026 28.2955 25.9378 28.1818 26.2068 27.9545C26.4757 27.7235 26.6784 27.4091 26.8147 27.0114C26.9549 26.6136 27.0249 26.161 27.0249 25.6534C27.0249 25.1458 26.9549 24.6932 26.8147 24.2955C26.6784 23.8977 26.4757 23.5833 26.2068 23.3523C25.9378 23.1212 25.6026 23.0057 25.2011 23.0057C24.7958 23.0057 24.4549 23.1212 24.1784 23.3523C23.9056 23.5833 23.6992 23.8977 23.559 24.2955C23.4227 24.6932 23.3545 25.1458 23.3545 25.6534C23.3545 26.161 23.4227 26.6136 23.559 27.0114C23.6992 27.4091 23.9056 27.7235 24.1784 27.9545C24.4549 28.1818 24.7958 28.2955 25.2011 28.2955ZM35.6422 30.1705C34.7483 30.1705 33.9793 29.9811 33.3354 29.6023C32.6952 29.2197 32.2028 28.6894 31.8581 28.0114C31.5172 27.3333 31.3468 26.553 31.3468 25.6705C31.3468 24.7765 31.5191 23.9924 31.8638 23.3182C32.2123 22.6402 32.7066 22.1117 33.3468 21.733C33.9869 21.3504 34.7483 21.1591 35.6309 21.1591C36.3922 21.1591 37.0589 21.2973 37.6309 21.5739C38.2028 21.8504 38.6555 22.2386 38.9888 22.7386C39.3221 23.2386 39.5059 23.8258 39.5399 24.5H37.2559C37.1915 24.0644 37.021 23.714 36.7445 23.4489C36.4718 23.1799 36.1138 23.0455 35.6706 23.0455C35.2956 23.0455 34.968 23.1477 34.6877 23.3523C34.4112 23.553 34.1952 23.8466 34.0399 24.233C33.8846 24.6193 33.807 25.0871 33.807 25.6364C33.807 26.1932 33.8827 26.6667 34.0343 27.0568C34.1896 27.447 34.4074 27.7443 34.6877 27.9489C34.968 28.1534 35.2956 28.2557 35.6706 28.2557C35.9471 28.2557 36.1952 28.1989 36.4149 28.0852C36.6384 27.9716 36.8221 27.8068 36.9661 27.5909C37.1138 27.3712 37.2104 27.108 37.2559 26.8011H39.5399C39.5021 27.4678 39.3202 28.0549 38.9945 28.5625C38.6725 29.0663 38.2274 29.4602 37.6593 29.7443C37.0911 30.0284 36.4187 30.1705 35.6422 30.1705Z" fill="#43291F"/>
<path d="M0 4H2V32H0V4Z" fill="#ADC178"/>
</svg>
