<svg width="49" height="34" viewBox="0 0 49 34" fill="none" xmlns="http://www.w3.org/2000/svg">
<g opacity="0.6">
<path d="M4.43466 19.0001V4.45461H9.8892C11.0066 4.45461 11.9441 4.66294 12.7017 5.07961C13.464 5.49627 14.0393 6.06919 14.4276 6.79836C14.8205 7.52279 15.017 8.34665 15.017 9.26995C15.017 10.2027 14.8205 11.0313 14.4276 11.7557C14.0346 12.4802 13.4545 13.0507 12.6875 13.4674C11.9205 13.8793 10.9759 14.0853 9.85369 14.0853H6.23864V11.9191H9.49858C10.152 11.9191 10.687 11.8055 11.1037 11.5782C11.5204 11.3509 11.8281 11.0384 12.027 10.6407C12.2306 10.243 12.3324 9.78605 12.3324 9.26995C12.3324 8.75385 12.2306 8.2993 12.027 7.90631C11.8281 7.51332 11.518 7.20792 11.0966 6.99012C10.6799 6.76758 10.1425 6.65631 9.48438 6.65631H7.0696V19.0001H4.43466ZM21.8654 19.2131C20.7717 19.2131 19.8271 18.9859 19.0316 18.5313C18.2409 18.072 17.6325 17.4234 17.2063 16.5853C16.7802 15.7425 16.5671 14.7505 16.5671 13.6094C16.5671 12.4873 16.7802 11.5024 17.2063 10.6549C17.6372 9.80262 18.2385 9.13974 19.0103 8.66625C19.7821 8.18803 20.6888 7.94892 21.7305 7.94892C22.4028 7.94892 23.0373 8.05783 23.6339 8.27563C24.2352 8.4887 24.7655 8.82014 25.2248 9.26995C25.6888 9.71976 26.0534 10.2927 26.3185 10.9887C26.5837 11.68 26.7163 12.5038 26.7163 13.4603V14.2486H17.7745V12.5157H24.2518C24.247 12.0233 24.1405 11.5853 23.9322 11.2018C23.7238 10.8135 23.4326 10.5081 23.0586 10.2856C22.6893 10.063 22.2584 9.95177 21.766 9.95177C21.2404 9.95177 20.7788 10.0796 20.381 10.3353C19.9833 10.5862 19.6732 10.9177 19.4506 11.3296C19.2328 11.7368 19.1216 12.1842 19.1168 12.6719V14.1847C19.1168 14.8192 19.2328 15.3637 19.4648 15.8182C19.6969 16.2681 20.0212 16.6137 20.4379 16.8552C20.8545 17.0919 21.3422 17.2103 21.9009 17.2103C22.275 17.2103 22.6135 17.1582 22.9165 17.054C23.2196 16.9451 23.4824 16.7865 23.7049 16.5782C23.9274 16.3699 24.0955 16.1118 24.2092 15.804L26.6097 16.0739C26.4582 16.7084 26.1694 17.2624 25.7433 17.7359C25.3219 18.2046 24.7821 18.5692 24.1239 18.8296C23.4658 19.0853 22.7129 19.2131 21.8654 19.2131ZM34.3388 8.09097V10.0796H28.0675V8.09097H34.3388ZM29.6158 5.47733H32.1868V15.7188C32.1868 16.0645 32.2389 16.3296 32.343 16.5143C32.4519 16.6942 32.594 16.8173 32.7692 16.8836C32.9444 16.9499 33.1385 16.983 33.3516 16.983C33.5125 16.983 33.6593 16.9712 33.7919 16.9475C33.9292 16.9238 34.0334 16.9025 34.1044 16.8836L34.5376 18.8935C34.4003 18.9409 34.2038 18.993 33.9482 19.0498C33.6972 19.1066 33.3894 19.1397 33.0249 19.1492C32.3809 19.1681 31.8009 19.0711 31.2848 18.858C30.7687 18.6402 30.3591 18.304 30.0561 17.8495C29.7578 17.3949 29.611 16.8268 29.6158 16.1449V5.47733Z" fill="#948474"/>
<path d="M13.1364 30.0001H9.01136V18.3637H13.1705C14.3409 18.3637 15.3485 18.5967 16.1932 19.0626C17.0379 19.5247 17.6875 20.1895 18.142 21.0569C18.6004 21.9243 18.8295 22.9622 18.8295 24.1705C18.8295 25.3826 18.6004 26.4243 18.142 27.2955C17.6875 28.1667 17.0341 28.8353 16.1818 29.3012C15.3333 29.7671 14.3182 30.0001 13.1364 30.0001ZM11.4716 27.8921H13.0341C13.7614 27.8921 14.3731 27.7633 14.8693 27.5057C15.3693 27.2444 15.7443 26.841 15.9943 26.2955C16.2481 25.7463 16.375 25.0379 16.375 24.1705C16.375 23.3107 16.2481 22.608 15.9943 22.0626C15.7443 21.5171 15.3712 21.1156 14.875 20.858C14.3788 20.6004 13.767 20.4717 13.0398 20.4717H11.4716V27.8921ZM25.1897 30.1705C24.3071 30.1705 23.5439 29.983 22.8999 29.608C22.2598 29.2292 21.7655 28.7027 21.417 28.0285C21.0685 27.3504 20.8943 26.5645 20.8943 25.6705C20.8943 24.769 21.0685 23.9811 21.417 23.3069C21.7655 22.6288 22.2598 22.1023 22.8999 21.7273C23.5439 21.3485 24.3071 21.1592 25.1897 21.1592C26.0723 21.1592 26.8337 21.3485 27.4738 21.7273C28.1177 22.1023 28.614 22.6288 28.9624 23.3069C29.3109 23.9811 29.4852 24.769 29.4852 25.6705C29.4852 26.5645 29.3109 27.3504 28.9624 28.0285C28.614 28.7027 28.1177 29.2292 27.4738 29.608C26.8337 29.983 26.0723 30.1705 25.1897 30.1705ZM25.2011 28.2955C25.6026 28.2955 25.9378 28.1819 26.2068 27.9546C26.4757 27.7235 26.6784 27.4092 26.8147 27.0114C26.9549 26.6137 27.0249 26.161 27.0249 25.6535C27.0249 25.1459 26.9549 24.6932 26.8147 24.2955C26.6784 23.8978 26.4757 23.5834 26.2068 23.3523C25.9378 23.1213 25.6026 23.0057 25.2011 23.0057C24.7958 23.0057 24.4549 23.1213 24.1784 23.3523C23.9056 23.5834 23.6992 23.8978 23.559 24.2955C23.4227 24.6932 23.3545 25.1459 23.3545 25.6535C23.3545 26.161 23.4227 26.6137 23.559 27.0114C23.6992 27.4092 23.9056 27.7235 24.1784 27.9546C24.4549 28.1819 24.7958 28.2955 25.2011 28.2955ZM35.6422 30.1705C34.7483 30.1705 33.9793 29.9811 33.3354 29.6023C32.6952 29.2198 32.2028 28.6895 31.8581 28.0114C31.5172 27.3334 31.3468 26.5531 31.3468 25.6705C31.3468 24.7766 31.5191 23.9925 31.8638 23.3182C32.2123 22.6402 32.7066 22.1118 33.3468 21.733C33.9869 21.3504 34.7483 21.1592 35.6309 21.1592C36.3922 21.1592 37.0589 21.2974 37.6309 21.5739C38.2028 21.8504 38.6555 22.2387 38.9888 22.7387C39.3221 23.2387 39.5059 23.8258 39.5399 24.5001H37.2559C37.1915 24.0645 37.021 23.7141 36.7445 23.4489C36.4718 23.18 36.1138 23.0455 35.6706 23.0455C35.2956 23.0455 34.968 23.1478 34.6877 23.3523C34.4112 23.5531 34.1952 23.8467 34.0399 24.233C33.8846 24.6194 33.807 25.0872 33.807 25.6364C33.807 26.1932 33.8827 26.6667 34.0343 27.0569C34.1896 27.447 34.4074 27.7444 34.6877 27.9489C34.968 28.1535 35.2956 28.2557 35.6706 28.2557C35.9471 28.2557 36.1952 28.1989 36.4149 28.0853C36.6384 27.9717 36.8221 27.8069 36.9661 27.591C37.1138 27.3713 37.2104 27.108 37.2559 26.8012H39.5399C39.5021 27.4679 39.3202 28.055 38.9945 28.5626C38.6725 29.0663 38.2274 29.4603 37.6593 29.7444C37.0911 30.0285 36.4187 30.1705 35.6422 30.1705Z" fill="#948474"/>
<path d="M0 4.00006H2V32.0001H0V4.00006Z" fill="#ADC178"/>
</g>
</svg>
