<svg width="22" height="22" viewBox="0 0 22 22" fill="none" xmlns="http://www.w3.org/2000/svg">
<path d="M20 0H2C0.895 0 0 0.895 0 2V20C0 21.105 0.895 22 2 22H20C21.105 22 22 21.105 22 20V2C22 0.895 21.105 0 20 0ZM17.361 14.967L15.493 14.993C15.493 14.993 15.09 15.072 14.563 14.708C13.864 14.228 13.205 12.979 12.691 13.141C12.17 13.307 12.186 14.431 12.186 14.431C12.186 14.431 12.19 14.629 12.071 14.758C11.942 14.897 11.689 14.883 11.689 14.883H10.852C10.852 14.883 9.006 15.036 7.379 13.34C5.607 11.491 4.041 7.842 4.041 7.842C4.041 7.842 3.949 7.612 4.047 7.494C4.158 7.364 4.457 7.36 4.457 7.36L6.457 7.35C6.457 7.35 6.645 7.383 6.781 7.483C6.892 7.565 6.955 7.719 6.955 7.719C6.955 7.719 7.278 8.538 7.707 9.28C8.543 10.726 8.931 11.043 9.215 10.888C9.629 10.662 9.505 8.844 9.505 8.844C9.505 8.844 9.513 8.184 9.297 7.89C9.129 7.661 8.813 7.593 8.675 7.576C8.562 7.561 8.746 7.299 8.986 7.181C9.346 7.005 9.982 6.995 10.733 7.002C11.318 7.008 11.487 7.044 11.715 7.1C12.405 7.267 12.171 7.911 12.171 9.456C12.171 9.951 12.082 10.647 12.438 10.876C12.592 10.975 12.967 10.891 13.902 9.297C14.347 8.541 14.68 7.653 14.68 7.653C14.68 7.653 14.753 7.495 14.866 7.427C14.982 7.357 15.138 7.379 15.138 7.379L17.243 7.366C17.243 7.366 17.875 7.29 17.978 7.577C18.086 7.877 17.742 8.578 16.882 9.725C15.47 11.609 15.313 11.434 16.486 12.524C17.606 13.565 17.837 14.071 17.876 14.135C18.339 14.906 17.361 14.967 17.361 14.967Z" fill="#948474" fill-opacity="0.6"/>
</svg>
